<?xml version="1.0" encoding="UTF-8" standalone="no"?>
<svg
   xmlns:dc="http://purl.org/dc/elements/1.1/"
   xmlns:cc="http://creativecommons.org/ns#"
   xmlns:rdf="http://www.w3.org/1999/02/22-rdf-syntax-ns#"
   xmlns:svg="http://www.w3.org/2000/svg"
   xmlns="http://www.w3.org/2000/svg"
   xmlns:sodipodi="http://sodipodi.sourceforge.net/DTD/sodipodi-0.dtd"
   xmlns:inkscape="http://www.inkscape.org/namespaces/inkscape"
   width="600mm"
   height="400mm"
   viewBox="0 0 599.99999 400.00001"
   version="1.1"
   id="svg119"
   sodipodi:docname="Console2 - Copy.svg"
   inkscape:version="0.92.4 (5da689c313, 2019-01-14)">
  <defs
     id="defs123" />
  <sodipodi:namedview
     pagecolor="#ffffff"
     bordercolor="#000000"
     borderopacity="0.25"
     objecttolerance="10"
     gridtolerance="10"
     guidetolerance="10"
     inkscape:pageopacity="0"
     inkscape:pageshadow="2"
     inkscape:window-width="2560"
     inkscape:window-height="1351"
     id="namedview121"
     showgrid="false"
     inkscape:document-units="mm"
     inkscape:zoom="0.97550198"
     inkscape:cx="976.01522"
     inkscape:cy="548.1782"
     inkscape:window-x="-9"
     inkscape:window-y="-9"
     inkscape:window-maximized="1"
     inkscape:current-layer="svg119" />
  <!--
Console2 - Console with slanted panel and service hatches



This box is designed as a housing for electronic projects. It has hatches that can be re-opened with simple tools. It intentionally cannot be opened with bare hands - if build with thin enough material.

#### Caution
There is a chance that the latches of the back wall or the back wall itself interfere with the front panel or it's mounting frame/lips. The generator does not check for this. So depending on the variant chosen you might need to make the box deeper (increase y parameter) or the panel angle steeper (increase angle parameter) until there is enough room.

It's also possible that the frame of the panel interferes with the floor if the hi parameter is too small.

#### Assembly instructions
The main body is easy to assemble by starting with the floor and then adding the four walls and (if present) the top piece.

If the back wall is removable you need to add the lips and latches. The U-shaped clamps holding the latches in place need to be clued in place without also gluing the latches themselves. Make sure the springs on the latches point inwards and the angled ends point to the side walls as shown here:

![Back wall details](static/samples/Console2-backwall-detail.jpg)

If the panel is removable you need to add the springs with the tabs to the side lips. This photo shows the variant which has the panel glued to the frame:

![Back wall details](static/samples/Console2-panel-detail.jpg)

If space is tight you may consider not gluing the cross pieces in place and remove them after the glue-up. This may prevent the latches of the back wall and the panel from interfering with each other.

The variant using finger joints only has the two side lips without the cross bars.

#### Re-Opening

The latches at the back wall lock in place when closed. To open them they need to be pressed in and can then be moved aside.

To remove the panel you have to press in the four tabs at the side. It is easiest to push them in and then pull the panel up a little bit so the tabs stay in.



Created with Boxes.py (https://festi.info/boxes.py)
Creation date: 2023-01-03 13:34:25
Command line (remove spaces between dashes): boxes Console2 - -FingerJoint_angle=90.0 - -FingerJoint_style=rectangular - -FingerJoint_surroundingspaces=0.5 - -FingerJoint_bottom_lip=0.0 - -FingerJoint_edge_width=1.0 - -FingerJoint_extra_length=0.0 - -FingerJoint_finger=2.0 - -FingerJoint_play=0.0 - -FingerJoint_space=2.0 - -FingerJoint_width=1.0 - -Stackable_angle=60 - -Stackable_bottom_stabilizers=0.0 - -Stackable_height=2.0 - -Stackable_holedistance=1.0 - -Stackable_width=4.0 - -x=180 - -y=100 - -h=135 - -bottom_edge=F - -outside=0 - -front_height=30 - -angle=60 - -removable_backwall=0 - -removable_backwall=1 - -removable_panel=0 - -glued_panel=0 - -thickness=3.0 - -format=svg - -tabs=0.0 - -debug=0 - -labels=0 - -labels=1 - -reference=100 - -inner_corners=loop - -burn=0.1
Url: http://www.festi.info/Console2?FingerJoint_angle=90.0&FingerJoint_style=rectangular&FingerJoint_surroundingspaces=0.5&FingerJoint_bottom_lip=0.0&FingerJoint_edge_width=1.0&FingerJoint_extra_length=0.0&FingerJoint_finger=2.0&FingerJoint_play=0.0&FingerJoint_space=2.0&FingerJoint_width=1.0&Stackable_angle=60&Stackable_bottom_stabilizers=0.0&Stackable_height=2.0&Stackable_holedistance=1.0&Stackable_width=4.0&x=180&y=100&h=135&bottom_edge=F&outside=0&front_height=30&angle=60&removable_backwall=0&removable_backwall=1&removable_panel=0&glued_panel=0&thickness=3.0&format=svg&tabs=0.0&debug=0&labels=0&labels=1&reference=100&inner_corners=loop&burn=0.1&render=2
SettingsUrl: http://www.festi.info/Console2?FingerJoint_angle=90.0&FingerJoint_style=rectangular&FingerJoint_surroundingspaces=0.5&FingerJoint_bottom_lip=0.0&FingerJoint_edge_width=1.0&FingerJoint_extra_length=0.0&FingerJoint_finger=2.0&FingerJoint_play=0.0&FingerJoint_space=2.0&FingerJoint_width=1.0&Stackable_angle=60&Stackable_bottom_stabilizers=0.0&Stackable_height=2.0&Stackable_holedistance=1.0&Stackable_width=4.0&x=180&y=100&h=135&bottom_edge=F&outside=0&front_height=30&angle=60&removable_backwall=0&removable_backwall=1&removable_panel=0&glued_panel=0&thickness=3.0&format=svg&tabs=0.0&debug=0&labels=0&labels=1&reference=100&inner_corners=loop&burn=0.1&render=2
-->
  <title
     id="title2">Console2</title>
  <metadata
     id="metadata4">
    <rdf:RDF>
      <cc:Work>
        <dc:title>Box - Console2</dc:title>
        <dc:date>2023-01-03 13:34:25</dc:date>
        <dc:source>http://www.festi.info/Console2?FingerJoint_angle=90.0&amp;FingerJoint_style=rectangular&amp;FingerJoint_surroundingspaces=0.5&amp;FingerJoint_bottom_lip=0.0&amp;FingerJoint_edge_width=1.0&amp;FingerJoint_extra_length=0.0&amp;FingerJoint_finger=2.0&amp;FingerJoint_play=0.0&amp;FingerJoint_space=2.0&amp;FingerJoint_width=1.0&amp;Stackable_angle=60&amp;Stackable_bottom_stabilizers=0.0&amp;Stackable_height=2.0&amp;Stackable_holedistance=1.0&amp;Stackable_width=4.0&amp;x=180&amp;y=100&amp;h=135&amp;bottom_edge=F&amp;outside=0&amp;front_height=30&amp;angle=60&amp;removable_backwall=0&amp;removable_backwall=1&amp;removable_panel=0&amp;glued_panel=0&amp;thickness=3.0&amp;format=svg&amp;tabs=0.0&amp;debug=0&amp;labels=0&amp;labels=1&amp;reference=100&amp;inner_corners=loop&amp;burn=0.1&amp;render=2</dc:source>
        <dc:description>Console with slanted panel and service hatches


This box is designed as a housing for electronic projects. It has hatches that can be re-opened with simple tools. It intentionally cannot be opened with bare hands - if build with thin enough material.

#### Caution
There is a chance that the latches of the back wall or the back wall itself interfere with the front panel or it's mounting frame/lips. The generator does not check for this. So depending on the variant chosen you might need to make the box deeper (increase y parameter) or the panel angle steeper (increase angle parameter) until there is enough room.

It's also possible that the frame of the panel interferes with the floor if the hi parameter is too small.

#### Assembly instructions
The main body is easy to assemble by starting with the floor and then adding the four walls and (if present) the top piece.

If the back wall is removable you need to add the lips and latches. The U-shaped clamps holding the latches in place need to be clued in place without also gluing the latches themselves. Make sure the springs on the latches point inwards and the angled ends point to the side walls as shown here:

![Back wall details](static/samples/Console2-backwall-detail.jpg)

If the panel is removable you need to add the springs with the tabs to the side lips. This photo shows the variant which has the panel glued to the frame:

![Back wall details](static/samples/Console2-panel-detail.jpg)

If space is tight you may consider not gluing the cross pieces in place and remove them after the glue-up. This may prevent the latches of the back wall and the panel from interfering with each other.

The variant using finger joints only has the two side lips without the cross bars.

#### Re-Opening

The latches at the back wall lock in place when closed. To open them they need to be pressed in and can then be moved aside.

To remove the panel you have to press in the four tabs at the side. It is easiest to push them in and then pull the panel up a little bit so the tabs stay in.


Created with Boxes.py (https://festi.info/boxes.py)
Command line: boxes Console2 --FingerJoint_angle=90.0 --FingerJoint_style=rectangular --FingerJoint_surroundingspaces=0.5 --FingerJoint_bottom_lip=0.0 --FingerJoint_edge_width=1.0 --FingerJoint_extra_length=0.0 --FingerJoint_finger=2.0 --FingerJoint_play=0.0 --FingerJoint_space=2.0 --FingerJoint_width=1.0 --Stackable_angle=60 --Stackable_bottom_stabilizers=0.0 --Stackable_height=2.0 --Stackable_holedistance=1.0 --Stackable_width=4.0 --x=180 --y=100 --h=135 --bottom_edge=F --outside=0 --front_height=30 --angle=60 --removable_backwall=0 --removable_backwall=1 --removable_panel=0 --glued_panel=0 --thickness=3.0 --format=svg --tabs=0.0 --debug=0 --labels=0 --labels=1 --reference=100 --inner_corners=loop --burn=0.1
Url: http://www.festi.info/Console2?FingerJoint_angle=90.0&amp;FingerJoint_style=rectangular&amp;FingerJoint_surroundingspaces=0.5&amp;FingerJoint_bottom_lip=0.0&amp;FingerJoint_edge_width=1.0&amp;FingerJoint_extra_length=0.0&amp;FingerJoint_finger=2.0&amp;FingerJoint_play=0.0&amp;FingerJoint_space=2.0&amp;FingerJoint_width=1.0&amp;Stackable_angle=60&amp;Stackable_bottom_stabilizers=0.0&amp;Stackable_height=2.0&amp;Stackable_holedistance=1.0&amp;Stackable_width=4.0&amp;x=180&amp;y=100&amp;h=135&amp;bottom_edge=F&amp;outside=0&amp;front_height=30&amp;angle=60&amp;removable_backwall=0&amp;removable_backwall=1&amp;removable_panel=0&amp;glued_panel=0&amp;thickness=3.0&amp;format=svg&amp;tabs=0.0&amp;debug=0&amp;labels=0&amp;labels=1&amp;reference=100&amp;inner_corners=loop&amp;burn=0.1&amp;render=2
SettingsUrl: http://www.festi.info/Console2?FingerJoint_angle=90.0&amp;FingerJoint_style=rectangular&amp;FingerJoint_surroundingspaces=0.5&amp;FingerJoint_bottom_lip=0.0&amp;FingerJoint_edge_width=1.0&amp;FingerJoint_extra_length=0.0&amp;FingerJoint_finger=2.0&amp;FingerJoint_play=0.0&amp;FingerJoint_space=2.0&amp;FingerJoint_width=1.0&amp;Stackable_angle=60&amp;Stackable_bottom_stabilizers=0.0&amp;Stackable_height=2.0&amp;Stackable_holedistance=1.0&amp;Stackable_width=4.0&amp;x=180&amp;y=100&amp;h=135&amp;bottom_edge=F&amp;outside=0&amp;front_height=30&amp;angle=60&amp;removable_backwall=0&amp;removable_backwall=1&amp;removable_panel=0&amp;glued_panel=0&amp;thickness=3.0&amp;format=svg&amp;tabs=0.0&amp;debug=0&amp;labels=0&amp;labels=1&amp;reference=100&amp;inner_corners=loop&amp;burn=0.1&amp;render=2
</dc:description>
        <dc:format>image/svg+xml</dc:format>
        <dc:type
           rdf:resource="http://purl.org/dc/dcmitype/StillImage" />
      </cc:Work>
    </rdf:RDF>
  </metadata>
  <g
     id="g1003"
     transform="translate(0,182.10001)">
    <path
       d="m 13.4,196.2 h 5 c 0.055,0 0.1,-0.045 0.1,-0.1 v -2.9 c 0,-0.1 -0.1,0 0,0 h 5.8 c 0.1,0 0,-0.1 0,0 v 2.9 c 0,0.055 0.045,0.1 0.1,0.1 h 6 c 0.055,0 0.1,-0.045 0.1,-0.1 v -2.9 c 0,-0.1 -0.1,0 0,0 h 5.8 c 0.1,0 0,-0.1 0,0 v 2.9 c 0,0.055 0.045,0.1 0.1,0.1 h 6 c 0.055,0 0.1,-0.045 0.1,-0.1 v -2.9 c 0,-0.1 -0.1,0 0,0 h 5.8 c 0.1,0 0,-0.1 0,0 v 2.9 c 0,0.055 0.045,0.1 0.1,0.1 h 6 c 0.055,0 0.1,-0.045 0.1,-0.1 v -2.9 c 0,-0.1 -0.1,0 0,0 h 5.8 c 0.1,0 0,-0.1 0,0 v 2.9 c 0,0.055 0.045,0.1 0.1,0.1 h 6 c 0.055,0 0.1,-0.045 0.1,-0.1 v -2.9 c 0,-0.1 -0.1,0 0,0 h 5.8 c 0.1,0 0,-0.1 0,0 v 2.9 c 0,0.055 0.045,0.1 0.1,0.1 h 6 c 0.055,0 0.1,-0.045 0.1,-0.1 v -2.9 c 0,-0.1 -0.1,0 0,0 h 5.8 c 0.1,0 0,-0.1 0,0 v 2.9 c 0,0.055 0.045,0.1 0.1,0.1 h 6 c 0.055,0 0.1,-0.045 0.1,-0.1 v -2.9 c 0,-0.1 -0.1,0 0,0 h 5.8 c 0.1,0 0,-0.1 0,0 v 2.9 c 0,0.055 0.045,0.1 0.1,0.1 h 6 c 0.055,0 0.1,-0.045 0.1,-0.1 v -2.9 c 0,-0.1 -0.1,0 0,0 h 5.8 c 0.1,0 0,-0.1 0,0 v 2.9 c 0,0.055 0.045,0.1 0.1,0.1 h 5 c 0.055,0 0.1,-0.045 0.1,-0.1 v -6.65 c 0,-0.1 -0.1,0 0,0 h 2.9 c 0.055,0 0.1,-0.045 0.1,-0.1 v -6 c 0,-0.055 -0.045,-0.1 -0.1,-0.1 h -2.9 c -0.1,0 0,0.1 0,0 v -5.8 c 0,-0.1 -0.1,0 0,0 h 2.9 c 0.055,0 0.1,-0.045 0.1,-0.1 v -6 c 0,-0.055 -0.045,-0.1 -0.1,-0.1 h -2.9 c -0.1,0 0,0.1 0,0 v -6.65 -1.5 c 0,-0.018 -0.005,-0.035 -0.013,-0.05 L 111.726,160 c -0.05,-0.087 -0.087,0.05 0,0 l 2.511,-1.45 c 0.048,-0.028 0.064,-0.089 0.037,-0.137 l -3,-5.196 c -0.028,-0.048 -0.089,-0.064 -0.137,-0.036 l -2.511,1.45 c -0.087,0.05 0.05,0.086 0,0 l -2.9,-5.023 c -0.05,-0.087 -0.087,0.05 0,0 l 2.511,-1.45 c 0.048,-0.028 0.064,-0.089 0.037,-0.137 l -3,-5.196 c -0.028,-0.048 -0.089,-0.064 -0.137,-0.037 l -2.511,1.45 c -0.087,0.05 0.05,0.087 0,0 l -2.9,-5.023 c -0.05,-0.086 -0.087,0.05 0,0 l 2.511,-1.45 c 0.048,-0.027 0.064,-0.088 0.037,-0.136 l -3,-5.196 c -0.028,-0.048 -0.089,-0.065 -0.137,-0.037 l -2.511,1.45 c -0.087,0.05 0.05,0.087 0,0 l -2.9,-5.023 c -0.05,-0.086 -0.087,0.05 0,0 l 2.511,-1.45 c 0.048,-0.027 0.064,-0.089 0.037,-0.136 l -3,-5.197 c -0.028,-0.047 -0.089,-0.064 -0.137,-0.036 l -2.511,1.45 c -0.087,0.05 0.05,0.086 0,0 l -2.9,-5.023 c -0.05,-0.087 -0.087,0.05 0,0 l 2.511,-1.45 c 0.048,-0.028 0.064,-0.089 0.037,-0.137 l -3,-5.196 c -0.028,-0.048 -0.089,-0.064 -0.137,-0.037 l -2.511,1.45 c -0.087,0.05 0.05,0.087 0,0 l -2.9,-5.022 c -0.05,-0.087 -0.087,0.05 0,0 l 2.511,-1.45 c 0.048,-0.028 0.064,-0.089 0.037,-0.137 l -3,-5.196 c -0.028,-0.048 -0.089,-0.064 -0.137,-0.037 l -2.511,1.45 c -0.087,0.05 0.05,0.087 0,0 l -2.9,-5.023 c -0.05,-0.086 -0.087,0.05 0,0 l 2.511,-1.45 c 0.048,-0.027 0.064,-0.089 0.037,-0.136 l -3,-5.197 c -0.028,-0.047 -0.089,-0.064 -0.137,-0.036 l -2.511,1.45 c -0.087,0.05 0.05,0.086 0,0 l -2.9,-5.023 c -0.05,-0.087 -0.087,0.05 0,0 l 2.511,-1.45 c 0.048,-0.028 0.064,-0.089 0.037,-0.137 l -3,-5.196 c -0.028,-0.048 -0.089,-0.064 -0.137,-0.036 l -2.511,1.45 c -0.087,0.05 0.05,0.086 0,0 l -2.9,-5.023 c -0.05,-0.087 -0.087,0.05 0,0 l 2.511,-1.45 c 0.048,-0.028 0.064,-0.089 0.037,-0.137 l -3,-5.196 c -0.028,-0.048 -0.089,-0.064 -0.137,-0.037 l -2.511,1.45 c -0.087,0.05 0.05,0.087 0,0 l -2.9,-5.023 c -0.05,-0.086 -0.087,0.05 0,0 l 2.511,-1.45 c 0.048,-0.027 0.064,-0.088 0.037,-0.136 l -3,-5.196 C 57.246,59.639 57.185,59.622 57.137,59.65 l -2.511,1.45 c -0.087,0.05 0.05,0.087 0,0 L 52.865,58.05 C 52.847,58.019 52.814,58 52.778,58 H 50.18 46.89 c -0.1,0 0,0.1 0,0 v -2.9 c 0,-0.055 -0.045,-0.1 -0.1,-0.1 h -6 c -0.055,0 -0.1,0.045 -0.1,0.1 V 58 c 0,0.1 0.1,0 0,0 h -5.8 c -0.1,0 0,0.1 0,0 v -2.9 c 0,-0.055 -0.045,-0.1 -0.1,-0.1 h -6 c -0.055,0 -0.1,0.045 -0.1,0.1 V 58 c 0,0.1 0.1,0 0,0 h -5.8 c -0.1,0 0,0.1 0,0 v -2.9 c 0,-0.055 -0.045,-0.1 -0.1,-0.1 h -6 c -0.055,0 -0.1,0.045 -0.1,0.1 V 58 c 0,0.1 0.1,0 0,0 H 13.4 c -0.055,0 -0.1,0.045 -0.1,0.1 v 132 1.4 c 0,0.1 0.1,0 0,0 h -2.9 c -0.055,0 -0.1,0.045 -0.1,0.1 v 3 c 0,0.055 0.045,0.1 0.1,0.1 h 2.9 c 0.1,0 0,-0.1 0,0 v 1.4 c 0,0.055 0.045,0.1 0.1,0.1"
       id="path13"
       inkscape:connector-curvature="0"
       style="fill:none;stroke:#000000;stroke-width:0.2;stroke-linecap:round;stroke-linejoin:round" />
    <path
       d="m 16.4,76.1 v -1.55 c 0,-0.1 -0.1,0 0,0 h 3.1 c 0.1,0 0,-0.1 0,0 v 3.1 c 0,0.1 0.1,0 0,0 h -3.1 c -0.1,0 0,0.1 0,0 z"
       id="path15"
       inkscape:connector-curvature="0"
       style="fill:none;stroke:#0000ff;stroke-width:0.2;stroke-linecap:round;stroke-linejoin:round" />
  </g>
  <g
     id="g1007"
     transform="translate(0,182.10001)">
    <path
       d="m 121.1,196.2 h 5 c 0.055,0 0.1,-0.045 0.1,-0.1 v -2.9 c 0,-0.1 -0.1,0 0,0 h 5.8 c 0.1,0 0,-0.1 0,0 v 2.9 c 0,0.055 0.045,0.1 0.1,0.1 h 6 c 0.055,0 0.1,-0.045 0.1,-0.1 v -2.9 c 0,-0.1 -0.1,0 0,0 h 5.8 c 0.1,0 0,-0.1 0,0 v 2.9 c 0,0.055 0.045,0.1 0.1,0.1 h 6 c 0.055,0 0.1,-0.045 0.1,-0.1 v -2.9 c 0,-0.1 -0.1,0 0,0 h 5.8 c 0.1,0 0,-0.1 0,0 v 2.9 c 0,0.055 0.045,0.1 0.1,0.1 h 6 c 0.055,0 0.1,-0.045 0.1,-0.1 v -2.9 c 0,-0.1 -0.1,0 0,0 h 5.8 c 0.1,0 0,-0.1 0,0 v 2.9 c 0,0.055 0.045,0.1 0.1,0.1 h 6 c 0.055,0 0.1,-0.045 0.1,-0.1 v -2.9 c 0,-0.1 -0.1,0 0,0 h 5.8 c 0.1,0 0,-0.1 0,0 v 2.9 c 0,0.055 0.045,0.1 0.1,0.1 h 6 c 0.055,0 0.1,-0.045 0.1,-0.1 v -2.9 c 0,-0.1 -0.1,0 0,0 h 5.8 c 0.1,0 0,-0.1 0,0 v 2.9 c 0,0.055 0.045,0.1 0.1,0.1 h 6 c 0.055,0 0.1,-0.045 0.1,-0.1 v -2.9 c 0,-0.1 -0.1,0 0,0 h 5.8 c 0.1,0 0,-0.1 0,0 v 2.9 c 0,0.055 0.045,0.1 0.1,0.1 h 6 c 0.055,0 0.1,-0.045 0.1,-0.1 v -2.9 c 0,-0.1 -0.1,0 0,0 h 5.8 c 0.1,0 0,-0.1 0,0 v 2.9 c 0,0.055 0.045,0.1 0.1,0.1 h 5 c 0.055,0 0.1,-0.045 0.1,-0.1 v -6.65 c 0,-0.1 -0.1,0 0,0 h 2.9 c 0.055,0 0.1,-0.045 0.1,-0.1 v -6 c 0,-0.055 -0.045,-0.1 -0.1,-0.1 h -2.9 c -0.1,0 0,0.1 0,0 v -5.8 c 0,-0.1 -0.1,0 0,0 h 2.9 c 0.055,0 0.1,-0.045 0.1,-0.1 v -6 c 0,-0.055 -0.045,-0.1 -0.1,-0.1 h -2.9 c -0.1,0 0,0.1 0,0 v -6.65 -1.5 c 0,-0.018 -0.005,-0.035 -0.013,-0.05 L 219.426,160 c -0.05,-0.087 -0.087,0.05 0,0 l 2.511,-1.45 c 0.048,-0.028 0.064,-0.089 0.037,-0.137 l -3,-5.196 c -0.028,-0.048 -0.089,-0.064 -0.137,-0.036 l -2.511,1.45 c -0.087,0.05 0.05,0.086 0,0 l -2.9,-5.023 c -0.05,-0.087 -0.087,0.05 0,0 l 2.511,-1.45 c 0.048,-0.028 0.064,-0.089 0.037,-0.137 l -3,-5.196 c -0.028,-0.048 -0.089,-0.064 -0.137,-0.037 l -2.511,1.45 c -0.087,0.05 0.05,0.087 0,0 l -2.9,-5.023 c -0.05,-0.086 -0.087,0.05 0,0 l 2.511,-1.45 c 0.048,-0.027 0.064,-0.088 0.037,-0.136 l -3,-5.196 c -0.028,-0.048 -0.089,-0.065 -0.137,-0.037 l -2.511,1.45 c -0.087,0.05 0.05,0.087 0,0 l -2.9,-5.023 c -0.05,-0.086 -0.087,0.05 0,0 l 2.511,-1.45 c 0.048,-0.027 0.064,-0.089 0.037,-0.136 l -3,-5.197 c -0.028,-0.047 -0.089,-0.064 -0.137,-0.036 l -2.511,1.45 c -0.087,0.05 0.05,0.086 0,0 l -2.9,-5.023 c -0.05,-0.087 -0.087,0.05 0,0 l 2.511,-1.45 c 0.048,-0.028 0.064,-0.089 0.037,-0.137 l -3,-5.196 c -0.028,-0.048 -0.089,-0.064 -0.137,-0.037 l -2.511,1.45 c -0.087,0.05 0.05,0.087 0,0 l -2.9,-5.022 c -0.05,-0.087 -0.087,0.05 0,0 l 2.511,-1.45 c 0.048,-0.028 0.064,-0.089 0.037,-0.137 l -3,-5.196 c -0.028,-0.048 -0.089,-0.064 -0.137,-0.037 l -2.511,1.45 c -0.087,0.05 0.05,0.087 0,0 l -2.9,-5.023 c -0.05,-0.086 -0.087,0.05 0,0 l 2.511,-1.45 c 0.048,-0.027 0.064,-0.089 0.037,-0.136 l -3,-5.197 c -0.028,-0.047 -0.089,-0.064 -0.137,-0.036 l -2.511,1.45 c -0.087,0.05 0.05,0.086 0,0 l -2.9,-5.023 c -0.05,-0.087 -0.087,0.05 0,0 l 2.511,-1.45 c 0.048,-0.028 0.064,-0.089 0.037,-0.137 l -3,-5.196 c -0.028,-0.048 -0.089,-0.064 -0.137,-0.036 l -2.511,1.45 c -0.087,0.05 0.05,0.086 0,0 l -2.9,-5.023 c -0.05,-0.087 -0.087,0.05 0,0 l 2.511,-1.45 c 0.048,-0.028 0.064,-0.089 0.037,-0.137 l -3,-5.196 c -0.028,-0.048 -0.089,-0.064 -0.137,-0.037 l -2.511,1.45 c -0.087,0.05 0.05,0.087 0,0 l -2.9,-5.023 c -0.05,-0.086 -0.087,0.05 0,0 l 2.511,-1.45 c 0.048,-0.027 0.064,-0.088 0.037,-0.136 l -3,-5.196 c -0.028,-0.048 -0.089,-0.065 -0.137,-0.037 l -2.511,1.45 c -0.087,0.05 0.05,0.087 0,0 l -1.761,-3.05 C 160.547,58.019 160.514,58 160.478,58 h -2.598 -3.29 c -0.1,0 0,0.1 0,0 v -2.9 c 0,-0.055 -0.045,-0.1 -0.1,-0.1 h -6 c -0.055,0 -0.1,0.045 -0.1,0.1 V 58 c 0,0.1 0.1,0 0,0 h -5.8 c -0.1,0 0,0.1 0,0 v -2.9 c 0,-0.055 -0.045,-0.1 -0.1,-0.1 h -6 c -0.055,0 -0.1,0.045 -0.1,0.1 V 58 c 0,0.1 0.1,0 0,0 h -5.8 c -0.1,0 0,0.1 0,0 v -2.9 c 0,-0.055 -0.045,-0.1 -0.1,-0.1 h -6 c -0.055,0 -0.1,0.045 -0.1,0.1 V 58 c 0,0.1 0.1,0 0,0 h -3.29 c -0.055,0 -0.1,0.045 -0.1,0.1 v 132 1.4 c 0,0.1 0.1,0 0,0 h -2.9 c -0.055,0 -0.1,0.045 -0.1,0.1 v 3 c 0,0.055 0.045,0.1 0.1,0.1 h 2.9 c 0.1,0 0,-0.1 0,0 v 1.4 c 0,0.055 0.045,0.1 0.1,0.1"
       id="path20"
       inkscape:connector-curvature="0"
       style="fill:none;stroke:#000000;stroke-width:0.2;stroke-linecap:round;stroke-linejoin:round" />
    <path
       d="m 124.1,76.1 v -1.55 c 0,-0.1 -0.1,0 0,0 h 3.1 c 0.1,0 0,-0.1 0,0 v 3.1 c 0,0.1 0.1,0 0,0 h -3.1 c -0.1,0 0,0.1 0,0 z"
       id="path22"
       inkscape:connector-curvature="0"
       style="fill:none;stroke:#0000ff;stroke-width:0.2;stroke-linecap:round;stroke-linejoin:round" />
  </g>
  <path
     style="fill:none;stroke:#000000;stroke-width:0.2;stroke-linecap:round;stroke-linejoin:round"
     inkscape:connector-curvature="0"
     id="path27"
     d="m 228.8,375.30001 h 4.9 c 0.1,0 0,-0.1 0,0 v 2.9 c 0,0.055 0.045,0.1 0.1,0.1 h 6 c 0.055,0 0.1,-0.045 0.1,-0.1 v -2.9 c 0,-0.1 -0.1,0 0,0 h 5.8 c 0.1,0 0,-0.1 0,0 v 2.9 c 0,0.055 0.045,0.1 0.1,0.1 h 6 c 0.055,0 0.1,-0.045 0.1,-0.1 v -2.9 c 0,-0.1 -0.1,0 0,0 h 5.8 c 0.1,0 0,-0.1 0,0 v 2.9 c 0,0.055 0.045,0.1 0.1,0.1 h 6 c 0.055,0 0.1,-0.045 0.1,-0.1 v -2.9 c 0,-0.1 -0.1,0 0,0 h 5.8 c 0.1,0 0,-0.1 0,0 v 2.9 c 0,0.055 0.045,0.1 0.1,0.1 h 6 c 0.055,0 0.1,-0.045 0.1,-0.1 v -2.9 c 0,-0.1 -0.1,0 0,0 h 5.8 c 0.1,0 0,-0.1 0,0 v 2.9 c 0,0.055 0.045,0.1 0.1,0.1 h 6 c 0.055,0 0.1,-0.045 0.1,-0.1 v -2.9 c 0,-0.1 -0.1,0 0,0 h 5.8 c 0.1,0 0,-0.1 0,0 v 2.9 c 0,0.055 0.045,0.1 0.1,0.1 h 6 c 0.055,0 0.1,-0.045 0.1,-0.1 v -2.9 c 0,-0.1 -0.1,0 0,0 h 5.8 c 0.1,0 0,-0.1 0,0 v 2.9 c 0,0.055 0.045,0.1 0.1,0.1 h 6 c 0.055,0 0.1,-0.045 0.1,-0.1 v -2.9 c 0,-0.1 -0.1,0 0,0 h 5.8 c 0.1,0 0,-0.1 0,0 v 2.9 c 0,0.055 0.045,0.1 0.1,0.1 h 6 c 0.055,0 0.1,-0.045 0.1,-0.1 v -2.9 c 0,-0.1 -0.1,0 0,0 h 4.9 c 0.055,0 0.1,-0.045 0.1,-0.1 v -2.9 c 0,-0.1 -0.1,0 0,0 h 2.9 c 0.055,0 0.1,-0.045 0.1,-0.1 v -6 c 0,-0.055 -0.045,-0.1 -0.1,-0.1 h -2.9 c -0.1,0 0,0.1 0,0 v -5.8 c 0,-0.1 -0.1,0 0,0 h 2.9 c 0.055,0 0.1,-0.045 0.1,-0.1 v -6 c 0,-0.055 -0.045,-0.1 -0.1,-0.1 h -2.9 c -0.1,0 0,0.1 0,0 v -5.8 c 0,-0.1 -0.1,0 0,0 h 2.9 c 0.055,0 0.1,-0.045 0.1,-0.1 v -6 c 0,-0.055 -0.045,-0.1 -0.1,-0.1 h -2.9 c -0.1,0 0,0.1 0,0 v -5.8 c 0,-0.1 -0.1,0 0,0 h 2.9 c 0.055,0 0.1,-0.045 0.1,-0.1 v -6 c 0,-0.055 -0.045,-0.1 -0.1,-0.1 h -2.9 c -0.1,0 0,0.1 0,0 v -5.8 c 0,-0.1 -0.1,0 0,0 h 2.9 c 0.055,0 0.1,-0.045 0.1,-0.1 v -6 c 0,-0.055 -0.045,-0.1 -0.1,-0.1 h -2.9 c -0.1,0 0,0.1 0,0 v -5.8 c 0,-0.1 -0.1,0 0,0 h 2.9 c 0.055,0 0.1,-0.045 0.1,-0.1 v -6 c 0,-0.055 -0.045,-0.1 -0.1,-0.1 h -2.9 c -0.1,0 0,0.1 0,0 v -5.8 c 0,-0.1 -0.1,0 0,0 h 2.9 c 0.055,0 0.1,-0.045 0.1,-0.1 v -6 c 0,-0.055 -0.045,-0.1 -0.1,-0.1 h -2.9 c -0.1,0 0,0.1 0,0 v -5.8 c 0,-0.1 -0.1,0 0,0 h 2.9 c 0.055,0 0.1,-0.045 0.1,-0.1 v -6 c 0,-0.055 -0.045,-0.1 -0.1,-0.1 h -2.9 c -0.1,0 0,0.1 0,0 v -5.8 c 0,-0.1 -0.1,0 0,0 h 2.9 c 0.055,0 0.1,-0.045 0.1,-0.1 v -6 c 0,-0.055 -0.045,-0.1 -0.1,-0.1 h -2.9 c -0.1,0 0,0.1 0,0 v -5.8 c 0,-0.1 -0.1,0 0,0 h 2.9 c 0.055,0 0.1,-0.045 0.1,-0.1 v -6 c 0,-0.055 -0.045,-0.1 -0.1,-0.1 h -2.9 c -0.1,0 0,0.1 0,0 v -5.8 c 0,-0.1 -0.1,0 0,0 h 2.9 c 0.055,0 0.1,-0.045 0.1,-0.1 v -6 c 0,-0.055 -0.045,-0.1 -0.1,-0.1 h -2.9 c -0.1,0 0,0.1 0,0 v -5.8 c 0,-0.1 -0.1,0 0,0 h 2.9 c 0.055,0 0.1,-0.045 0.1,-0.1 v -6 c 0,-0.055 -0.045,-0.1 -0.1,-0.1 h -2.9 c -0.1,0 0,0.1 0,0 v -5.8 c 0,-0.1 -0.1,0 0,0 h 2.9 c 0.055,0 0.1,-0.045 0.1,-0.1 v -6 c 0,-0.055 -0.045,-0.1 -0.1,-0.1 h -2.9 c -0.1,0 0,0.1 0,0 v -5.8 c 0,-0.1 -0.1,0 0,0 h 2.9 c 0.055,0 0.1,-0.045 0.1,-0.1 v -6 c 0,-0.055 -0.045,-0.1 -0.1,-0.1 h -2.9 c -0.1,0 0,0.1 0,0 v -5.8 c 0,-0.1 -0.1,0 0,0 h 2.9 c 0.055,0 0.1,-0.045 0.1,-0.1 v -6 c 0,-0.055 -0.045,-0.1 -0.1,-0.1 h -2.9 c -0.1,0 0,0.1 0,0 v -2.9 c 0,-0.055 -0.045,-0.1 -0.1,-0.1 h -4.9 c -0.1,0 0,0.1 0,0 v -2.9 c 0,-0.055 -0.045,-0.1 -0.1,-0.1 h -6 c -0.055,0 -0.1,0.045 -0.1,0.1 v 2.9 c 0,0.1 0.1,0 0,0 h -5.8 c -0.1,0 0,0.1 0,0 v -2.9 c 0,-0.055 -0.045,-0.1 -0.1,-0.1 h -6 c -0.055,0 -0.1,0.045 -0.1,0.1 v 2.9 c 0,0.1 0.1,0 0,0 h -5.8 c -0.1,0 0,0.1 0,0 v -2.9 c 0,-0.055 -0.045,-0.1 -0.1,-0.1 h -6 c -0.055,0 -0.1,0.045 -0.1,0.1 v 2.9 c 0,0.1 0.1,0 0,0 h -5.8 c -0.1,0 0,0.1 0,0 v -2.9 c 0,-0.055 -0.045,-0.1 -0.1,-0.1 h -6 c -0.055,0 -0.1,0.045 -0.1,0.1 v 2.9 c 0,0.1 0.1,0 0,0 h -5.8 c -0.1,0 0,0.1 0,0 v -2.9 c 0,-0.055 -0.045,-0.1 -0.1,-0.1 h -6 c -0.055,0 -0.1,0.045 -0.1,0.1 v 2.9 c 0,0.1 0.1,0 0,0 h -5.8 c -0.1,0 0,0.1 0,0 v -2.9 c 0,-0.055 -0.045,-0.1 -0.1,-0.1 h -6 c -0.055,0 -0.1,0.045 -0.1,0.1 v 2.9 c 0,0.1 0.1,0 0,0 h -5.8 c -0.1,0 0,0.1 0,0 v -2.9 c 0,-0.055 -0.045,-0.1 -0.1,-0.1 h -6 c -0.055,0 -0.1,0.045 -0.1,0.1 v 2.9 c 0,0.1 0.1,0 0,0 h -5.8 c -0.1,0 0,0.1 0,0 v -2.9 c 0,-0.055 -0.045,-0.1 -0.1,-0.1 h -6 c -0.055,0 -0.1,0.045 -0.1,0.1 v 2.9 c 0,0.1 0.1,0 0,0 h -4.9 c -0.055,0 -0.1,0.045 -0.1,0.1 v 2.9 c 0,0.1 0.1,0 0,0 h -2.9 c -0.055,0 -0.1,0.045 -0.1,0.1 v 6 c 0,0.055 0.045,0.1 0.1,0.1 h 2.9 c 0.1,0 0,-0.1 0,0 v 5.8 c 0,0.1 0.1,0 0,0 h -2.9 c -0.055,0 -0.1,0.045 -0.1,0.1 v 6 c 0,0.055 0.045,0.1 0.1,0.1 h 2.9 c 0.1,0 0,-0.1 0,0 v 5.8 c 0,0.1 0.1,0 0,0 h -2.9 c -0.055,0 -0.1,0.045 -0.1,0.1 v 6 c 0,0.055 0.045,0.1 0.1,0.1 h 2.9 c 0.1,0 0,-0.1 0,0 v 5.8 c 0,0.1 0.1,0 0,0 h -2.9 c -0.055,0 -0.1,0.045 -0.1,0.1 v 6 c 0,0.055 0.045,0.1 0.1,0.1 h 2.9 c 0.1,0 0,-0.1 0,0 v 5.8 c 0,0.1 0.1,0 0,0 h -2.9 c -0.055,0 -0.1,0.045 -0.1,0.1 v 6 c 0,0.055 0.045,0.1 0.1,0.1 h 2.9 c 0.1,0 0,-0.1 0,0 v 5.8 c 0,0.1 0.1,0 0,0 h -2.9 c -0.055,0 -0.1,0.045 -0.1,0.1 v 6 c 0,0.055 0.045,0.1 0.1,0.1 h 2.9 c 0.1,0 0,-0.1 0,0 v 5.8 c 0,0.1 0.1,0 0,0 h -2.9 c -0.055,0 -0.1,0.045 -0.1,0.1 v 6 c 0,0.055 0.045,0.1 0.1,0.1 h 2.9 c 0.1,0 0,-0.1 0,0 v 5.8 c 0,0.1 0.1,0 0,0 h -2.9 c -0.055,0 -0.1,0.045 -0.1,0.1 v 6 c 0,0.055 0.045,0.1 0.1,0.1 h 2.9 c 0.1,0 0,-0.1 0,0 v 5.8 c 0,0.1 0.1,0 0,0 h -2.9 c -0.055,0 -0.1,0.045 -0.1,0.1 v 6 c 0,0.055 0.045,0.1 0.1,0.1 h 2.9 c 0.1,0 0,-0.1 0,0 v 5.8 c 0,0.1 0.1,0 0,0 h -2.9 c -0.055,0 -0.1,0.045 -0.1,0.1 v 6 c 0,0.055 0.045,0.1 0.1,0.1 h 2.9 c 0.1,0 0,-0.1 0,0 v 5.8 c 0,0.1 0.1,0 0,0 h -2.9 c -0.055,0 -0.1,0.045 -0.1,0.1 v 6 c 0,0.055 0.045,0.1 0.1,0.1 h 2.9 c 0.1,0 0,-0.1 0,0 v 5.8 c 0,0.1 0.1,0 0,0 h -2.9 c -0.055,0 -0.1,0.045 -0.1,0.1 v 6 c 0,0.055 0.045,0.1 0.1,0.1 h 2.9 c 0.1,0 0,-0.1 0,0 v 5.8 c 0,0.1 0.1,0 0,0 h -2.9 c -0.055,0 -0.1,0.045 -0.1,0.1 v 6 c 0,0.055 0.045,0.1 0.1,0.1 h 2.9 c 0.1,0 0,-0.1 0,0 v 5.8 c 0,0.1 0.1,0 0,0 h -2.9 c -0.055,0 -0.1,0.045 -0.1,0.1 v 6 c 0,0.055 0.045,0.1 0.1,0.1 h 2.9 c 0.1,0 0,-0.1 0,0 v 5.8 c 0,0.1 0.1,0 0,0 h -2.9 c -0.055,0 -0.1,0.045 -0.1,0.1 v 6 c 0,0.055 0.045,0.1 0.1,0.1 h 2.9 c 0.1,0 0,-0.1 0,0 v 2.9 c 0,0.055 0.045,0.1 0.1,0.1" />
  <path
     style="fill:none;stroke:#000000;stroke-width:0.2;stroke-linecap:round;stroke-linejoin:round"
     inkscape:connector-curvature="0"
     id="path32"
     d="m 149.33627,232.37941 h 6.75 c 0.055,0 0.1,-0.045 0.1,-0.1 v -2.9 c 0,-0.1 -0.1,0 0,0 h 5.8 c 0.1,0 0,-0.1 0,0 v 2.9 c 0,0.055 0.045,0.1 0.1,0.1 h 6 c 0.055,0 0.1,-0.045 0.1,-0.1 v -2.9 c 0,-0.1 -0.1,0 0,0 h 5.8 c 0.1,0 0,-0.1 0,0 v 2.9 c 0,0.055 0.045,0.1 0.1,0.1 h 6.75 c 0.055,0 0.1,-0.045 0.1,-0.1 v -3 -179.999999 -3 c 0,-0.055 -0.045,-0.1 -0.1,-0.1 h -6.75 c -0.055,0 -0.1,0.045 -0.1,0.1 v 2.9 c 0,0.1 0.1,0 0,0 h -5.8 c -0.1,0 0,0.1 0,0 v -2.9 c 0,-0.055 -0.045,-0.1 -0.1,-0.1 h -6 c -0.055,0 -0.1,0.045 -0.1,0.1 v 2.9 c 0,0.1 0.1,0 0,0 h -5.8 c -0.1,0 0,0.1 0,0 v -2.9 c 0,-0.055 -0.045,-0.1 -0.1,-0.1 h -6.75 c -0.055,0 -0.1,0.045 -0.1,0.1 v 3 3 c 0,0.055 0.045,0.1 0.1,0.1 h 2.9 c 0.1,0 0,-0.1 0,0 v 5.8 c 0,0.1 0.1,0 0,0 h -2.9 c -0.055,0 -0.1,0.045 -0.1,0.1 v 6 c 0,0.055 0.045,0.1 0.1,0.1 h 2.9 c 0.1,0 0,-0.1 0,0 v 5.8 c 0,0.1 0.1,0 0,0 h -2.9 c -0.055,0 -0.1,0.045 -0.1,0.1 v 6 c 0,0.055 0.045,0.1 0.1,0.1 h 2.9 c 0.1,0 0,-0.1 0,0 v 5.8 c 0,0.1 0.1,0 0,0 h -2.9 c -0.055,0 -0.1,0.045 -0.1,0.1 v 6 c 0,0.055 0.045,0.1 0.1,0.1 h 2.9 c 0.1,0 0,-0.1 0,0 v 5.8 c 0,0.1 0.1,0 0,0 h -2.9 c -0.055,0 -0.1,0.045 -0.1,0.1 v 5.999999 c 0,0.055 0.045,0.1 0.1,0.1 h 2.9 c 0.1,0 0,-0.1 0,0 v 5.8 c 0,0.1 0.1,0 0,0 h -2.9 c -0.055,0 -0.1,0.045 -0.1,0.1 v 6 c 0,0.055 0.045,0.1 0.1,0.1 h 2.9 c 0.1,0 0,-0.1 0,0 v 5.8 c 0,0.1 0.1,0 0,0 h -2.9 c -0.055,0 -0.1,0.045 -0.1,0.1 v 6 c 0,0.055 0.045,0.1 0.1,0.1 h 2.9 c 0.1,0 0,-0.1 0,0 v 5.8 c 0,0.1 0.1,0 0,0 h -2.9 c -0.055,0 -0.1,0.045 -0.1,0.1 v 6 c 0,0.055 0.045,0.1 0.1,0.1 h 2.9 c 0.1,0 0,-0.1 0,0 v 5.8 c 0,0.1 0.1,0 0,0 h -2.9 c -0.055,0 -0.1,0.045 -0.1,0.1 v 6 c 0,0.055 0.045,0.1 0.1,0.1 h 2.9 c 0.1,0 0,-0.1 0,0 v 5.8 c 0,0.1 0.1,0 0,0 h -2.9 c -0.055,0 -0.1,0.045 -0.1,0.1 v 6 c 0,0.055 0.045,0.1 0.1,0.1 h 2.9 c 0.1,0 0,-0.1 0,0 v 5.8 c 0,0.1 0.1,0 0,0 h -2.9 c -0.055,0 -0.1,0.045 -0.1,0.1 v 6 c 0,0.055 0.045,0.1 0.1,0.1 h 2.9 c 0.1,0 0,-0.1 0,0 v 5.8 c 0,0.1 0.1,0 0,0 h -2.9 c -0.055,0 -0.1,0.045 -0.1,0.1 v 6 c 0,0.055 0.045,0.1 0.1,0.1 h 2.9 c 0.1,0 0,-0.1 0,0 v 5.8 c 0,0.1 0.1,0 0,0 h -2.9 c -0.055,0 -0.1,0.045 -0.1,0.1 v 6 c 0,0.055 0.045,0.1 0.1,0.1 h 2.9 c 0.1,0 0,-0.1 0,0 v 5.8 c 0,0.1 0.1,0 0,0 h -2.9 c -0.055,0 -0.1,0.045 -0.1,0.1 v 6 c 0,0.055 0.045,0.1 0.1,0.1 h 2.9 c 0.1,0 0,-0.1 0,0 v 5.8 c 0,0.1 0.1,0 0,0 h -2.9 c -0.055,0 -0.1,0.045 -0.1,0.1 v 6 c 0,0.055 0.045,0.1 0.1,0.1 h 2.9 c 0.1,0 0,-0.1 0,0 v 5.8 c 0,0.1 0.1,0 0,0 h -2.9 c -0.055,0 -0.1,0.045 -0.1,0.1 v 3 3 c 0,0.055 0.045,0.1 0.1,0.1" />
  <path
     style="fill:none;stroke:#000000;stroke-width:0.2;stroke-linecap:round;stroke-linejoin:round"
     inkscape:connector-curvature="0"
     id="path42"
     d="m 183.52714,232.37941 h 3.39 c 0.055,0 0.1,-0.045 0.1,-0.1 v -2.9 c 0,-0.1 -0.1,0 0,0 h 5.8 c 0.1,0 0,-0.1 0,0 v 2.9 c 0,0.055 0.044,0.1 0.1,0.1 h 6 c 0.055,0 0.1,-0.045 0.1,-0.1 v -2.9 c 0,-0.1 -0.1,0 0,0 h 5.8 c 0.1,0 0,-0.1 0,0 v 2.9 c 0,0.055 0.044,0.1 0.1,0.1 h 6 c 0.055,0 0.1,-0.045 0.1,-0.1 v -2.9 c 0,-0.1 -0.1,0 0,0 h 5.8 c 0.1,0 0,-0.1 0,0 v 2.9 c 0,0.055 0.044,0.1 0.1,0.1 h 3.39 3 c 0.055,0 0.1,-0.045 0.1,-0.1 v -3 -179.999999 -3 c 0,-0.055 -0.045,-0.1 -0.1,-0.1 h -3 -3.39 c -0.056,0 -0.1,0.045 -0.1,0.1 v 2.9 c 0,0.1 0.1,0 0,0 h -5.8 c -0.1,0 0,0.1 0,0 v -2.9 c 0,-0.055 -0.045,-0.1 -0.1,-0.1 h -6 c -0.056,0 -0.1,0.045 -0.1,0.1 v 2.9 c 0,0.1 0.1,0 0,0 h -5.8 c -0.1,0 0,0.1 0,0 v -2.9 c 0,-0.055 -0.045,-0.1 -0.1,-0.1 h -6 c -0.056,0 -0.1,0.045 -0.1,0.1 v 2.9 c 0,0.1 0.1,0 0,0 h -5.8 c -0.1,0 0,0.1 0,0 v -2.9 c 0,-0.055 -0.045,-0.1 -0.1,-0.1 h -3.39 c -0.056,0 -0.1,0.045 -0.1,0.1 v 3 179.999999 3 c 0,0.055 0.044,0.1 0.1,0.1" />
  <g
     id="g1138"
     transform="rotate(-90,456.24255,203.52141)">
    <path
       d="m 476.73076,163.31291 h 6 c 0.055,0 0.1,-0.045 0.1,-0.1 v -3 -104.849998 -3 c 0,-0.055 -0.045,-0.1 -0.1,-0.1 h -6 c -0.056,0 -0.1,0.045 -0.1,0.1 v 3 7.325 c 0,0.1 0.1,0 0,0 h -2.9 c -0.056,0 -0.1,0.045 -0.1,0.1 v 6 c 0,0.055 0.044,0.1 0.1,0.1 h 2.9 c 0.1,0 0,-0.1 0,0 v 5.8 c 0,0.1 0.1,0 0,0 h -2.9 c -0.056,0 -0.1,0.045 -0.1,0.1 v 6 c 0,0.055 0.044,0.1 0.1,0.1 h 2.9 c 0.1,0 0,-0.1 0,0 v 5.8 c 0,0.1 0.1,0 0,0 h -2.9 c -0.056,0 -0.1,0.045 -0.1,0.1 v 6 c 0,0.055 0.044,0.1 0.1,0.1 h 2.9 c 0.1,0 0,-0.1 0,0 v 5.8 c 0,0.1 0.1,0 0,0 h -2.9 c -0.056,0 -0.1,0.045 -0.1,0.1 v 5.999998 c 0,0.055 0.044,0.1 0.1,0.1 h 2.9 c 0.1,0 0,-0.1 0,0 v 5.8 c 0,0.1 0.1,0 0,0 h -2.9 c -0.056,0 -0.1,0.045 -0.1,0.1 v 6 c 0,0.055 0.044,0.1 0.1,0.1 h 2.9 c 0.1,0 0,-0.1 0,0 v 5.8 c 0,0.1 0.1,0 0,0 h -2.9 c -0.056,0 -0.1,0.045 -0.1,0.1 v 6 c 0,0.055 0.044,0.1 0.1,0.1 h 2.9 c 0.1,0 0,-0.1 0,0 v 5.8 c 0,0.1 0.1,0 0,0 h -2.9 c -0.056,0 -0.1,0.045 -0.1,0.1 v 6 c 0,0.055 0.044,0.1 0.1,0.1 h 2.9 c 0.1,0 0,-0.1 0,0 v 5.8 c 0,0.1 0.1,0 0,0 h -2.9 c -0.056,0 -0.1,0.045 -0.1,0.1 v 6 c 0,0.055 0.044,0.1 0.1,0.1 h 2.9 c 0.1,0 0,-0.1 0,0 v 7.325 3 c 0,0.055 0.044,0.1 0.1,0.1"
       id="path88"
       inkscape:connector-curvature="0"
       style="fill:none;stroke:#000000;stroke-width:0.2;stroke-linecap:round;stroke-linejoin:round" />
    <path
       d="m 487.43076,163.31291 h 6 c 0.055,0 0.1,-0.045 0.1,-0.1 v -3 -104.849998 -3 c 0,-0.055 -0.045,-0.1 -0.1,-0.1 h -6 c -0.056,0 -0.1,0.045 -0.1,0.1 v 3 7.325 c 0,0.1 0.1,0 0,0 h -2.9 c -0.056,0 -0.1,0.045 -0.1,0.1 v 6 c 0,0.055 0.044,0.1 0.1,0.1 h 2.9 c 0.1,0 0,-0.1 0,0 v 5.8 c 0,0.1 0.1,0 0,0 h -2.9 c -0.056,0 -0.1,0.045 -0.1,0.1 v 6 c 0,0.055 0.044,0.1 0.1,0.1 h 2.9 c 0.1,0 0,-0.1 0,0 v 5.8 c 0,0.1 0.1,0 0,0 h -2.9 c -0.056,0 -0.1,0.045 -0.1,0.1 v 6 c 0,0.055 0.044,0.1 0.1,0.1 h 2.9 c 0.1,0 0,-0.1 0,0 v 5.8 c 0,0.1 0.1,0 0,0 h -2.9 c -0.056,0 -0.1,0.045 -0.1,0.1 v 5.999998 c 0,0.055 0.044,0.1 0.1,0.1 h 2.9 c 0.1,0 0,-0.1 0,0 v 5.8 c 0,0.1 0.1,0 0,0 h -2.9 c -0.056,0 -0.1,0.045 -0.1,0.1 v 6 c 0,0.055 0.044,0.1 0.1,0.1 h 2.9 c 0.1,0 0,-0.1 0,0 v 5.8 c 0,0.1 0.1,0 0,0 h -2.9 c -0.056,0 -0.1,0.045 -0.1,0.1 v 6 c 0,0.055 0.044,0.1 0.1,0.1 h 2.9 c 0.1,0 0,-0.1 0,0 v 5.8 c 0,0.1 0.1,0 0,0 h -2.9 c -0.056,0 -0.1,0.045 -0.1,0.1 v 6 c 0,0.055 0.044,0.1 0.1,0.1 h 2.9 c 0.1,0 0,-0.1 0,0 v 5.8 c 0,0.1 0.1,0 0,0 h -2.9 c -0.056,0 -0.1,0.045 -0.1,0.1 v 6 c 0,0.055 0.044,0.1 0.1,0.1 h 2.9 c 0.1,0 0,-0.1 0,0 v 7.325 3 c 0,0.055 0.044,0.1 0.1,0.1"
       id="path93"
       inkscape:connector-curvature="0"
       style="fill:none;stroke:#000000;stroke-width:0.2;stroke-linecap:round;stroke-linejoin:round" />
    <path
       d="m 495.13076,163.31291 h 1.5 c 0.055,0 0.1,-0.045 0.1,-0.1 v -2.9 c 0,-0.1 -0.1,0 0,0 h 2.8 c 0.1,0 0,-0.1 0,0 v 2.9 c 0,0.055 0.044,0.1 0.1,0.1 h 1.5 c 0.055,0 0.1,-0.045 0.1,-0.1 v -3 -3 c 0,-0.055 -0.045,-0.1 -0.1,-0.1 h -2.9 c -0.1,0 0,0.1 0,0 v -5.8 c 0,-0.1 -0.1,0 0,0 h 2.9 c 0.055,0 0.1,-0.045 0.1,-0.1 v -6 c 0,-0.055 -0.045,-0.1 -0.1,-0.1 h -2.9 c -0.1,0 0,0.1 0,0 v -5.8 c 0,-0.1 -0.1,0 0,0 h 2.9 c 0.055,0 0.1,-0.045 0.1,-0.1 v -6 c 0,-0.055 -0.045,-0.1 -0.1,-0.1 h -2.9 c -0.1,0 0,0.1 0,0 v -5.8 c 0,-0.1 -0.1,0 0,0 h 2.9 c 0.055,0 0.1,-0.045 0.1,-0.1 v -6 c 0,-0.055 -0.045,-0.1 -0.1,-0.1 h -2.9 c -0.1,0 0,0.1 0,0 v -5.8 c 0,-0.1 -0.1,0 0,0 h 2.9 c 0.055,0 0.1,-0.045 0.1,-0.1 v -6 c 0,-0.055 -0.045,-0.1 -0.1,-0.1 h -2.9 c -0.1,0 0,0.1 0,0 v -5.8 c 0,-0.1 -0.1,0 0,0 h 2.9 c 0.055,0 0.1,-0.045 0.1,-0.1 v -5.999998 c 0,-0.055 -0.045,-0.1 -0.1,-0.1 h -2.9 c -0.1,0 0,0.1 0,0 v -5.8 c 0,-0.1 -0.1,0 0,0 h 2.9 c 0.055,0 0.1,-0.045 0.1,-0.1 v -6 c 0,-0.055 -0.045,-0.1 -0.1,-0.1 h -2.9 c -0.1,0 0,0.1 0,0 v -5.8 c 0,-0.1 -0.1,0 0,0 h 2.9 c 0.055,0 0.1,-0.045 0.1,-0.1 v -6 c 0,-0.055 -0.045,-0.1 -0.1,-0.1 h -2.9 c -0.1,0 0,0.1 0,0 v -5.8 c 0,-0.1 -0.1,0 0,0 h 2.9 c 0.055,0 0.1,-0.045 0.1,-0.1 v -6 c 0,-0.055 -0.045,-0.1 -0.1,-0.1 h -2.9 c -0.1,0 0,0.1 0,0 v -5.8 c 0,-0.1 -0.1,0 0,0 h 2.9 c 0.055,0 0.1,-0.045 0.1,-0.1 v -6 c 0,-0.055 -0.045,-0.1 -0.1,-0.1 h -2.9 c -0.1,0 0,0.1 0,0 v -5.8 c 0,-0.1 -0.1,0 0,0 h 2.9 c 0.055,0 0.1,-0.045 0.1,-0.1 v -6 c 0,-0.055 -0.045,-0.1 -0.1,-0.1 h -2.9 c -0.1,0 0,0.1 0,0 v -5.799998 c 0,-0.1 -0.1,0 0,0 h 2.9 c 0.055,0 0.1,-0.045 0.1,-0.1 v -6 c 0,-0.055 -0.045,-0.1 -0.1,-0.1 h -2.9 c -0.1,0 0,0.1 0,0 v -5.8 c 0,-0.1 -0.1,0 0,0 h 2.9 c 0.055,0 0.1,-0.045 0.1,-0.1 v -6 c 0,-0.055 -0.045,-0.1 -0.1,-0.1 h -2.9 c -0.1,0 0,0.1 0,0 V 7.3129143 c 0,-0.1 -0.1,0 0,0 h 2.9 c 0.055,0 0.1,-0.045 0.1,-0.1 v -6 c 0,-0.055 -0.045,-0.1 -0.1,-0.1 h -2.9 c -0.1,0 0,0.1 0,0 v -5.8 c 0,-0.1 -0.1,0 0,0 h 2.9 c 0.055,0 0.1,-0.045 0.1,-0.1 v -6.0000003 c 0,-0.055 -0.045,-0.1 -0.1,-0.1 h -2.9 c -0.1,0 0,0.1 0,0 v -5.8 c 0,-0.1 -0.1,0 0,0 h 2.9 c 0.055,0 0.1,-0.045 0.1,-0.1 v -3 -3 c 0,-0.055 -0.045,-0.1 -0.1,-0.1 h -1.5 c -0.056,0 -0.1,0.045 -0.1,0.1 v 2.9 c 0,0.1 0.1,0 0,0 h -2.8 c -0.1,0 0,0.1 0,0 v -2.9 c 0,-0.055 -0.045,-0.1 -0.1,-0.1 h -1.5 c -0.056,0 -0.1,0.045 -0.1,0.1 v 3 179.999996 3 c 0,0.055 0.044,0.1 0.1,0.1"
       id="path98"
       inkscape:connector-curvature="0"
       style="fill:none;stroke:#000000;stroke-width:0.2;stroke-linecap:round;stroke-linejoin:round" />
    <path
       d="m 502.83076,159.71291 h 2.9 c 0.1,0 0,-0.1 0,0 v 0.5 c 0,0.055 0.044,0.1 0.1,0.1 h 5.9 c 0.1,0 0,-0.1 0,0 v 2.9 c 0,0.055 0.044,0.1 0.1,0.1 h 3 c 0.055,0 0.1,-0.045 0.1,-0.1 v -2.9 c 0,-0.1 -0.1,0 0,0 h 8.9 c 0.055,0 0.1,-0.045 0.1,-0.1 v -2.9 c 0,-0.1 -0.1,0 0,0 h 2.9 c 0.055,0 0.1,-0.045 0.1,-0.1 v -3 c 0,-0.055 -0.045,-0.1 -0.1,-0.1 h -6 c -0.056,0 -0.1,0.045 -0.1,0.1 v 1.393 c 0,0.107 0.107,0.007 0,0 l -14.558,-1.018 c -0.057,-0.004 -0.106,0.042 -0.106,0.1 v 1.5 c 0,0.052 0.04,0.096 0.093,0.099 l 14.664,1.026 c -0.021,-0.002 -0.041,-0.009 -0.057,-0.023 -0.015,-0.013 -0.027,-0.03 -0.033,-0.05 -0.005,-0.02 -0.004,-0.041 0.002,-0.061 0.007,-0.019 0.02,-0.036 0.037,-0.048 0.017,-0.012 0.037,-0.018 0.058,-0.018 h -14.9 c -0.1,0 0,0.1 0,0 v -2.9 c 0,-0.055 -0.045,-0.1 -0.1,-0.1 h -3 c -0.056,0 -0.1,0.045 -0.1,0.1 v 5.4 c 0,0.055 0.044,0.1 0.1,0.1 z"
       id="path101"
       inkscape:connector-curvature="0"
       style="fill:none;stroke:#000000;stroke-width:0.2;stroke-linecap:round;stroke-linejoin:round" />
    <path
       d="m 502.83076,149.01291 h 2.9 c 0.1,0 0,-0.1 0,0 v 0.5 c 0,0.055 0.044,0.1 0.1,0.1 h 5.9 c 0.1,0 0,-0.1 0,0 v 2.9 c 0,0.055 0.044,0.1 0.1,0.1 h 3 c 0.055,0 0.1,-0.045 0.1,-0.1 v -2.9 c 0,-0.1 -0.1,0 0,0 h 8.9 c 0.055,0 0.1,-0.045 0.1,-0.1 v -2.9 c 0,-0.1 -0.1,0 0,0 h 2.9 c 0.055,0 0.1,-0.045 0.1,-0.1 v -3 c 0,-0.055 -0.045,-0.1 -0.1,-0.1 h -6 c -0.056,0 -0.1,0.045 -0.1,0.1 v 1.393 c 0,0.107 0.107,0.007 0,0 l -14.558,-1.018 c -0.057,-0.004 -0.106,0.042 -0.106,0.1 v 1.5 c 0,0.052 0.04,0.096 0.093,0.099 l 14.664,1.026 c -0.021,-0.002 -0.041,-0.009 -0.057,-0.023 -0.015,-0.013 -0.027,-0.03 -0.033,-0.05 -0.005,-0.02 -0.004,-0.041 0.002,-0.061 0.007,-0.019 0.02,-0.036 0.037,-0.048 0.017,-0.012 0.037,-0.018 0.058,-0.018 h -14.9 c -0.1,0 0,0.1 0,0 v -2.9 c 0,-0.055 -0.045,-0.1 -0.1,-0.1 h -3 c -0.056,0 -0.1,0.045 -0.1,0.1 v 5.4 c 0,0.055 0.044,0.1 0.1,0.1 z"
       id="path104"
       inkscape:connector-curvature="0"
       style="fill:none;stroke:#000000;stroke-width:0.2;stroke-linecap:round;stroke-linejoin:round" />
    <path
       d="m 504.33076,141.91291 h 2.85 c 0.055,0 0.1,-0.045 0.1,-0.1 v -7.55 c 0,-0.1 -0.1,0 0,0 h 3.1 c 0.1,0 0,-0.1 0,0 v 7.55 c 0,0.055 0.044,0.1 0.1,0.1 h 2.85 c 0.055,0 0.1,-0.045 0.1,-0.1 v -2.9 c 0,-0.1 -0.1,0 0,0 h 1.4 c 0.055,0 0.1,-0.045 0.1,-0.1 v -6 c 0,-0.027 -0.011,-0.052 -0.03,-0.071 l -3,-3 c -0.018,-0.018 -0.044,-0.029 -0.07,-0.029 h -6 c -0.027,0 -0.052,0.011 -0.071,0.029 l -3,3 c -0.019,0.019 -0.029,0.044 -0.029,0.071 v 6 c 0,0.055 0.044,0.1 0.1,0.1 h 1.4 c 0.1,0 0,-0.1 0,0 v 2.9 c 0,0.055 0.044,0.1 0.1,0.1 z"
       id="path107"
       inkscape:connector-curvature="0"
       style="fill:none;stroke:#000000;stroke-width:0.2;stroke-linecap:round;stroke-linejoin:round" />
    <path
       d="m 518.03076,141.91291 h 2.85 c 0.055,0 0.1,-0.045 0.1,-0.1 v -7.55 c 0,-0.1 -0.1,0 0,0 h 3.1 c 0.1,0 0,-0.1 0,0 v 7.55 c 0,0.055 0.044,0.1 0.1,0.1 h 2.85 c 0.055,0 0.1,-0.045 0.1,-0.1 v -2.9 c 0,-0.1 -0.1,0 0,0 h 1.4 c 0.055,0 0.1,-0.045 0.1,-0.1 v -6 c 0,-0.027 -0.011,-0.052 -0.03,-0.071 l -3,-3 c -0.018,-0.018 -0.044,-0.029 -0.07,-0.029 h -6 c -0.027,0 -0.052,0.011 -0.071,0.029 l -3,3 c -0.019,0.019 -0.029,0.044 -0.029,0.071 v 6 c 0,0.055 0.044,0.1 0.1,0.1 h 1.4 c 0.1,0 0,-0.1 0,0 v 2.9 c 0,0.055 0.044,0.1 0.1,0.1 z"
       id="path110"
       inkscape:connector-curvature="0"
       style="fill:none;stroke:#000000;stroke-width:0.2;stroke-linecap:round;stroke-linejoin:round" />
    <path
       d="m 504.33076,128.21291 h 2.85 c 0.055,0 0.1,-0.045 0.1,-0.1 v -7.55 c 0,-0.1 -0.1,0 0,0 h 3.1 c 0.1,0 0,-0.1 0,0 v 7.55 c 0,0.055 0.044,0.1 0.1,0.1 h 2.85 c 0.055,0 0.1,-0.045 0.1,-0.1 v -2.9 c 0,-0.1 -0.1,0 0,0 h 1.4 c 0.055,0 0.1,-0.045 0.1,-0.1 v -6 c 0,-0.027 -0.011,-0.052 -0.03,-0.071 l -3,-3 c -0.018,-0.018 -0.044,-0.029 -0.07,-0.029 h -6 c -0.027,0 -0.052,0.011 -0.071,0.029 l -3,3 c -0.019,0.019 -0.029,0.044 -0.029,0.071 v 6 c 0,0.055 0.044,0.1 0.1,0.1 h 1.4 c 0.1,0 0,-0.1 0,0 v 2.9 c 0,0.055 0.044,0.1 0.1,0.1 z"
       id="path113"
       inkscape:connector-curvature="0"
       style="fill:none;stroke:#000000;stroke-width:0.2;stroke-linecap:round;stroke-linejoin:round" />
    <path
       d="m 518.03076,128.21291 h 2.85 c 0.055,0 0.1,-0.045 0.1,-0.1 v -7.55 c 0,-0.1 -0.1,0 0,0 h 3.1 c 0.1,0 0,-0.1 0,0 v 7.55 c 0,0.055 0.044,0.1 0.1,0.1 h 2.85 c 0.055,0 0.1,-0.045 0.1,-0.1 v -2.9 c 0,-0.1 -0.1,0 0,0 h 1.4 c 0.055,0 0.1,-0.045 0.1,-0.1 v -6 c 0,-0.027 -0.011,-0.052 -0.03,-0.071 l -3,-3 c -0.018,-0.018 -0.044,-0.029 -0.07,-0.029 h -6 c -0.027,0 -0.052,0.011 -0.071,0.029 l -3,3 c -0.019,0.019 -0.029,0.044 -0.029,0.071 v 6 c 0,0.055 0.044,0.1 0.1,0.1 h 1.4 c 0.1,0 0,-0.1 0,0 v 2.9 c 0,0.055 0.044,0.1 0.1,0.1 z"
       id="path116"
       inkscape:connector-curvature="0"
       style="fill:none;stroke:#000000;stroke-width:0.2;stroke-linecap:round;stroke-linejoin:round" />
  </g>
  <g
     id="g868">
    <path
       d="m 337.42082,378.30001 h 3.622 c 0.055,0 0.1,-0.045 0.1,-0.1 v -2.9 c 0,-0.1 -0.1,0 0,0 h 5.8 c 0.1,0 0,-0.1 0,0 v 2.9 c 0,0.055 0.045,0.1 0.1,0.1 h 6 c 0.055,0 0.1,-0.045 0.1,-0.1 v -2.9 c 0,-0.1 -0.1,0 0,0 h 5.8 c 0.1,0 0,-0.1 0,0 v 2.9 c 0,0.055 0.045,0.1 0.1,0.1 h 6 c 0.055,0 0.1,-0.045 0.1,-0.1 v -2.9 c 0,-0.1 -0.1,0 0,0 h 5.8 c 0.1,0 0,-0.1 0,0 v 2.9 c 0,0.055 0.045,0.1 0.1,0.1 h 6 c 0.055,0 0.1,-0.045 0.1,-0.1 v -2.9 c 0,-0.1 -0.1,0 0,0 h 5.8 c 0.1,0 0,-0.1 0,0 v 2.9 c 0,0.055 0.045,0.1 0.1,0.1 h 6 c 0.055,0 0.1,-0.045 0.1,-0.1 v -2.9 c 0,-0.1 -0.1,0 0,0 h 5.8 c 0.1,0 0,-0.1 0,0 v 2.9 c 0,0.055 0.045,0.1 0.1,0.1 h 6 c 0.055,0 0.1,-0.045 0.1,-0.1 v -2.9 c 0,-0.1 -0.1,0 0,0 h 5.8 c 0.1,0 0,-0.1 0,0 v 2.9 c 0,0.055 0.045,0.1 0.1,0.1 h 6 c 0.055,0 0.1,-0.045 0.1,-0.1 v -2.9 c 0,-0.1 -0.1,0 0,0 h 5.8 c 0.1,0 0,-0.1 0,0 v 2.9 c 0,0.055 0.045,0.1 0.1,0.1 h 6 c 0.055,0 0.1,-0.045 0.1,-0.1 v -2.9 c 0,-0.1 -0.1,0 0,0 h 5.8 c 0.1,0 0,-0.1 0,0 v 2.9 c 0,0.055 0.045,0.1 0.1,0.1 h 6 c 0.055,0 0.1,-0.045 0.1,-0.1 v -2.9 c 0,-0.1 -0.1,0 0,0 h 5.8 c 0.1,0 0,-0.1 0,0 v 2.9 c 0,0.055 0.045,0.1 0.1,0.1 h 6 c 0.055,0 0.1,-0.045 0.1,-0.1 v -2.9 c 0,-0.1 -0.1,0 0,0 h 5.8 c 0.1,0 0,-0.1 0,0 v 2.9 c 0,0.055 0.045,0.1 0.1,0.1 h 3.622 3 c 0.055,0 0.1,-0.045 0.1,-0.1 v -3 -180 -3 c 0,-0.055 -0.045,-0.1 -0.1,-0.1 h -3 -3.622 c -0.055,0 -0.1,0.045 -0.1,0.1 v 2.9 c 0,0.1 0.1,0 0,0 h -5.8 c -0.1,0 0,0.1 0,0 v -2.9 c 0,-0.055 -0.045,-0.1 -0.1,-0.1 h -6 c -0.055,0 -0.1,0.045 -0.1,0.1 v 2.9 c 0,0.1 0.1,0 0,0 h -5.8 c -0.1,0 0,0.1 0,0 v -2.9 c 0,-0.055 -0.045,-0.1 -0.1,-0.1 h -6 c -0.055,0 -0.1,0.045 -0.1,0.1 v 2.9 c 0,0.1 0.1,0 0,0 h -5.8 c -0.1,0 0,0.1 0,0 v -2.9 c 0,-0.055 -0.045,-0.1 -0.1,-0.1 h -6 c -0.055,0 -0.1,0.045 -0.1,0.1 v 2.9 c 0,0.1 0.1,0 0,0 h -5.8 c -0.1,0 0,0.1 0,0 v -2.9 c 0,-0.055 -0.045,-0.1 -0.1,-0.1 h -6 c -0.055,0 -0.1,0.045 -0.1,0.1 v 2.9 c 0,0.1 0.1,0 0,0 h -5.8 c -0.1,0 0,0.1 0,0 v -2.9 c 0,-0.055 -0.045,-0.1 -0.1,-0.1 h -6 c -0.055,0 -0.1,0.045 -0.1,0.1 v 2.9 c 0,0.1 0.1,0 0,0 h -5.8 c -0.1,0 0,0.1 0,0 v -2.9 c 0,-0.055 -0.045,-0.1 -0.1,-0.1 h -6 c -0.055,0 -0.1,0.045 -0.1,0.1 v 2.9 c 0,0.1 0.1,0 0,0 h -5.8 c -0.1,0 0,0.1 0,0 v -2.9 c 0,-0.055 -0.045,-0.1 -0.1,-0.1 h -6 c -0.055,0 -0.1,0.045 -0.1,0.1 v 2.9 c 0,0.1 0.1,0 0,0 h -5.8 c -0.1,0 0,0.1 0,0 v -2.9 c 0,-0.055 -0.045,-0.1 -0.1,-0.1 h -6 c -0.055,0 -0.1,0.045 -0.1,0.1 v 2.9 c 0,0.1 0.1,0 0,0 h -5.8 c -0.1,0 0,0.1 0,0 v -2.9 c 0,-0.055 -0.045,-0.1 -0.1,-0.1 h -6 c -0.055,0 -0.1,0.045 -0.1,0.1 v 2.9 c 0,0.1 0.1,0 0,0 h -5.8 c -0.1,0 0,0.1 0,0 v -2.9 c 0,-0.055 -0.045,-0.1 -0.1,-0.1 h -3.622 -3 c -0.055,0 -0.1,0.045 -0.1,0.1 v 3 180 3 c 0,0.055 0.045,0.1 0.1,0.1 h 3"
       id="path37"
       inkscape:connector-curvature="0"
       style="fill:none;stroke:#ff0000;stroke-width:0.2;stroke-linecap:round;stroke-linejoin:round" />
    <rect
       y="200.85294"
       x="344.19574"
       height="168.69415"
       width="107.69417"
       id="rect930"
       style="fill:none;fill-opacity:1;stroke:#ff0000;stroke-width:0.10583333;stroke-miterlimit:4;stroke-dasharray:none;stroke-opacity:1" />
  </g>
  <g
     id="g999"
     transform="translate(-522.04441,35.574687)">
    <path
       d="m 555.124,187.1 h -4.4 c -0.1,0 0,0.1 0,0 v -2.8 c 0,-0.1 -0.1,0 0,0 h 2.75 c 0.055,0 0.1,-0.045 0.1,-0.1 v -6 c 0,-0.055 -0.045,-0.1 -0.1,-0.1 h -2.75 c -0.1,0 0,0.1 0,0 v -2.8 c 0,-0.1 -0.1,0 0,0 h 8.8 c 0.1,0 0,-0.1 0,0 v 2.8 c 0,0.1 0.1,0 0,0 h -2.75 c -0.056,0 -0.1,0.045 -0.1,0.1 v 6 c 0,0.055 0.044,0.1 0.1,0.1 h 2.75 c 0.1,0 0,-0.1 0,0 v 2.8 c 0,0.1 0.1,0 0,0 z"
       id="path45"
       inkscape:connector-curvature="0"
       style="fill:none;stroke:#0000ff;stroke-width:0.2;stroke-linecap:round;stroke-linejoin:round" />
    <path
       d="m 537.124,196.2 h 131.85 c 0.055,0 0.1,-0.045 0.1,-0.1 v -3 -180 -3 c 0,-0.055 -0.045,-0.1 -0.1,-0.1 h -131.85 c -0.056,0 -0.1,0.045 -0.1,0.1 v 3 180 3 c 0,0.055 0.044,0.1 0.1,0.1"
       id="path49"
       inkscape:connector-curvature="0"
       style="fill:none;stroke:#000000;stroke-width:0.2;stroke-linecap:round;stroke-linejoin:round" />
    <path
       d="m 658.549,190.2 h 2.9 c 0.1,0 0,-0.1 0,0 v 2.8 c 0,0.1 0.1,0 0,0 h -5.8 c -0.1,0 0,0.1 0,0 v -2.8 c 0,-0.1 -0.1,0 0,0 z"
       id="path51"
       inkscape:connector-curvature="0"
       style="fill:none;stroke:#0000ff;stroke-width:0.2;stroke-linecap:round;stroke-linejoin:round" />
    <path
       d="m 646.549,190.2 h 2.9 c 0.1,0 0,-0.1 0,0 v 2.8 c 0,0.1 0.1,0 0,0 h -5.8 c -0.1,0 0,0.1 0,0 v -2.8 c 0,-0.1 -0.1,0 0,0 z"
       id="path53"
       inkscape:connector-curvature="0"
       style="fill:none;stroke:#0000ff;stroke-width:0.2;stroke-linecap:round;stroke-linejoin:round" />
    <path
       d="m 634.549,190.2 h 2.9 c 0.1,0 0,-0.1 0,0 v 2.8 c 0,0.1 0.1,0 0,0 h -5.8 c -0.1,0 0,0.1 0,0 v -2.8 c 0,-0.1 -0.1,0 0,0 z"
       id="path55"
       inkscape:connector-curvature="0"
       style="fill:none;stroke:#0000ff;stroke-width:0.2;stroke-linecap:round;stroke-linejoin:round" />
    <path
       d="m 622.549,190.2 h 2.9 c 0.1,0 0,-0.1 0,0 v 2.8 c 0,0.1 0.1,0 0,0 h -5.8 c -0.1,0 0,0.1 0,0 v -2.8 c 0,-0.1 -0.1,0 0,0 z"
       id="path57"
       inkscape:connector-curvature="0"
       style="fill:none;stroke:#0000ff;stroke-width:0.2;stroke-linecap:round;stroke-linejoin:round" />
    <path
       d="m 610.549,190.2 h 2.9 c 0.1,0 0,-0.1 0,0 v 2.8 c 0,0.1 0.1,0 0,0 h -5.8 c -0.1,0 0,0.1 0,0 v -2.8 c 0,-0.1 -0.1,0 0,0 z"
       id="path59"
       inkscape:connector-curvature="0"
       style="fill:none;stroke:#0000ff;stroke-width:0.2;stroke-linecap:round;stroke-linejoin:round" />
    <path
       d="m 598.549,190.2 h 2.9 c 0.1,0 0,-0.1 0,0 v 2.8 c 0,0.1 0.1,0 0,0 h -5.8 c -0.1,0 0,0.1 0,0 v -2.8 c 0,-0.1 -0.1,0 0,0 z"
       id="path61"
       inkscape:connector-curvature="0"
       style="fill:none;stroke:#0000ff;stroke-width:0.2;stroke-linecap:round;stroke-linejoin:round" />
    <path
       d="m 586.549,190.2 h 2.9 c 0.1,0 0,-0.1 0,0 v 2.8 c 0,0.1 0.1,0 0,0 h -5.8 c -0.1,0 0,0.1 0,0 v -2.8 c 0,-0.1 -0.1,0 0,0 z"
       id="path63"
       inkscape:connector-curvature="0"
       style="fill:none;stroke:#0000ff;stroke-width:0.2;stroke-linecap:round;stroke-linejoin:round" />
    <path
       d="m 574.549,190.2 h 2.9 c 0.1,0 0,-0.1 0,0 v 2.8 c 0,0.1 0.1,0 0,0 h -5.8 c -0.1,0 0,0.1 0,0 v -2.8 c 0,-0.1 -0.1,0 0,0 z"
       id="path65"
       inkscape:connector-curvature="0"
       style="fill:none;stroke:#0000ff;stroke-width:0.2;stroke-linecap:round;stroke-linejoin:round" />
    <path
       d="m 555.574,19.1 h 4.4 c 0.1,0 0,-0.1 0,0 v 2.8 c 0,0.1 0.1,0 0,0 h -2.75 c -0.056,0 -0.1,0.045 -0.1,0.1 v 6 c 0,0.055 0.044,0.1 0.1,0.1 h 2.75 c 0.1,0 0,-0.1 0,0 v 2.8 c 0,0.1 0.1,0 0,0 h -8.8 c -0.1,0 0,0.1 0,0 v -2.8 c 0,-0.1 -0.1,0 0,0 h 2.75 c 0.055,0 0.1,-0.045 0.1,-0.1 v -6 c 0,-0.055 -0.045,-0.1 -0.1,-0.1 h -2.75 c -0.1,0 0,0.1 0,0 v -2.8 c 0,-0.1 -0.1,0 0,0 z"
       id="path67"
       inkscape:connector-curvature="0"
       style="fill:none;stroke:#0000ff;stroke-width:0.2;stroke-linecap:round;stroke-linejoin:round" />
    <path
       d="m 574.699,16 h -2.9 c -0.1,0 0,0.1 0,0 v -2.8 c 0,-0.1 -0.1,0 0,0 h 5.8 c 0.1,0 0,-0.1 0,0 V 16 c 0,0.1 0.1,0 0,0 z"
       id="path69"
       inkscape:connector-curvature="0"
       style="fill:none;stroke:#0000ff;stroke-width:0.2;stroke-linecap:round;stroke-linejoin:round" />
    <path
       d="m 586.699,16 h -2.9 c -0.1,0 0,0.1 0,0 v -2.8 c 0,-0.1 -0.1,0 0,0 h 5.8 c 0.1,0 0,-0.1 0,0 V 16 c 0,0.1 0.1,0 0,0 z"
       id="path71"
       inkscape:connector-curvature="0"
       style="fill:none;stroke:#0000ff;stroke-width:0.2;stroke-linecap:round;stroke-linejoin:round" />
    <path
       d="m 598.699,16 h -2.9 c -0.1,0 0,0.1 0,0 v -2.8 c 0,-0.1 -0.1,0 0,0 h 5.8 c 0.1,0 0,-0.1 0,0 V 16 c 0,0.1 0.1,0 0,0 z"
       id="path73"
       inkscape:connector-curvature="0"
       style="fill:none;stroke:#0000ff;stroke-width:0.2;stroke-linecap:round;stroke-linejoin:round" />
    <path
       d="m 610.699,16 h -2.9 c -0.1,0 0,0.1 0,0 v -2.8 c 0,-0.1 -0.1,0 0,0 h 5.8 c 0.1,0 0,-0.1 0,0 V 16 c 0,0.1 0.1,0 0,0 z"
       id="path75"
       inkscape:connector-curvature="0"
       style="fill:none;stroke:#0000ff;stroke-width:0.2;stroke-linecap:round;stroke-linejoin:round" />
    <path
       d="m 622.699,16 h -2.9 c -0.1,0 0,0.1 0,0 v -2.8 c 0,-0.1 -0.1,0 0,0 h 5.8 c 0.1,0 0,-0.1 0,0 V 16 c 0,0.1 0.1,0 0,0 z"
       id="path77"
       inkscape:connector-curvature="0"
       style="fill:none;stroke:#0000ff;stroke-width:0.2;stroke-linecap:round;stroke-linejoin:round" />
    <path
       d="m 634.699,16 h -2.9 c -0.1,0 0,0.1 0,0 v -2.8 c 0,-0.1 -0.1,0 0,0 h 5.8 c 0.1,0 0,-0.1 0,0 V 16 c 0,0.1 0.1,0 0,0 z"
       id="path79"
       inkscape:connector-curvature="0"
       style="fill:none;stroke:#0000ff;stroke-width:0.2;stroke-linecap:round;stroke-linejoin:round" />
    <path
       d="m 646.699,16 h -2.9 c -0.1,0 0,0.1 0,0 v -2.8 c 0,-0.1 -0.1,0 0,0 h 5.8 c 0.1,0 0,-0.1 0,0 V 16 c 0,0.1 0.1,0 0,0 z"
       id="path81"
       inkscape:connector-curvature="0"
       style="fill:none;stroke:#0000ff;stroke-width:0.2;stroke-linecap:round;stroke-linejoin:round" />
    <path
       d="m 658.699,16 h -2.9 c -0.1,0 0,0.1 0,0 v -2.8 c 0,-0.1 -0.1,0 0,0 h 5.8 c 0.1,0 0,-0.1 0,0 V 16 c 0,0.1 0.1,0 0,0 z"
       id="path83"
       inkscape:connector-curvature="0"
       style="fill:none;stroke:#0000ff;stroke-width:0.2;stroke-linecap:round;stroke-linejoin:round" />
  </g>
  <rect
     style="fill:none;fill-opacity:1;stroke:#000000;stroke-width:0.10583333;stroke-miterlimit:4;stroke-dasharray:none;stroke-opacity:1"
     id="rect1009"
     width="5.8941665"
     height="129.89417"
     x="23.553291"
     y="73.727608" />
  <rect
     style="fill:none;fill-opacity:1;stroke:#000000;stroke-width:0.10583333;stroke-miterlimit:4;stroke-dasharray:none;stroke-opacity:1"
     id="rect1009-9"
     width="13.081705"
     height="129.89417"
     x="133.90598"
     y="73.727608" />
  <rect
     style="fill:none;fill-opacity:1;stroke:#000000;stroke-width:0.10583333;stroke-miterlimit:4;stroke-dasharray:none;stroke-opacity:1"
     id="rect1009-6"
     width="5.8941665"
     height="129.89417"
     x="62.597515"
     y="73.727608" />
  <rect
     style="fill:none;fill-opacity:1;stroke:#000000;stroke-width:0.10583333;stroke-miterlimit:4;stroke-dasharray:none;stroke-opacity:1"
     id="rect1009-97"
     width="5.8941665"
     height="129.89417"
     x="73.175407"
     y="73.727608" />
  <rect
     style="fill:none;fill-opacity:1;stroke:#000000;stroke-width:0.10583333;stroke-miterlimit:4;stroke-dasharray:none;stroke-opacity:1"
     id="rect1009-0"
     width="5.8941665"
     height="129.89417"
     x="83.482071"
     y="73.727608" />
  <rect
     style="fill:none;fill-opacity:1;stroke:#000000;stroke-width:0.10583333;stroke-miterlimit:4;stroke-dasharray:none;stroke-opacity:1"
     id="rect1009-4"
     width="5.8941665"
     height="129.89417"
     x="93.517502"
     y="73.727608" />
  <rect
     style="fill:none;fill-opacity:1;stroke:#000000;stroke-width:0.10583333;stroke-miterlimit:4;stroke-dasharray:none;stroke-opacity:1"
     id="rect1009-9-6"
     width="5.8941665"
     height="129.89417"
     x="120.34988"
     y="73.860474" />
</svg>
